<?xml version="1.0" encoding="iso-8859-1"?>
<!-- Generator: Adobe Illustrator 19.0.0, SVG Export Plug-In . SVG Version: 6.00 Build 0)  -->
<svg version="1.1" id="Capa_1" xmlns="http://www.w3.org/2000/svg" xmlns:xlink="http://www.w3.org/1999/xlink" x="0px" y="0px"
	 viewBox="0 0 480.015 480.015" style="enable-background:new 0 0 480.015 480.015;" xml:space="preserve">
<g>
	<g>
		<path d="M472,448.008H43.312l87.52-87.512l108,15.432c3.59,0.509,7.073-1.461,8.488-4.8L292,266.943l18.936-2.704
			c4.374-0.625,7.413-4.678,6.788-9.052c-0.625-4.374-4.678-7.413-9.052-6.788l-9.296,1.328l66.92-156.12L476,30.951
			c3.835-2.209,5.153-7.109,2.944-10.944c-2.209-3.835-7.109-5.153-10.944-2.944l-112,64c-1.51,0.863-2.698,2.194-3.384,3.792
			l-71.792,167.52l-23.808,3.4c-4.374,0.627-7.411,4.682-6.784,9.056c0.627,4.374,4.682,7.411,9.056,6.784l14.16-2.024l-38.4,89.6
			l-105.912-15.104c-2.495-0.37-5.018,0.471-6.792,2.264L32,436.695V126.48l1.504-0.32c4.32-0.926,7.071-5.179,6.145-9.499
			c0-0.002-0.001-0.003-0.001-0.005c-0.799-3.588-3.972-6.148-7.648-6.168V8.008c0-4.418-3.582-8-8-8s-8,3.582-8,8v104H8
			c-4.418,0-8,3.582-8,8s3.582,8,8,8h8v104H8c-4.418,0-8,3.582-8,8s3.582,8,8,8h8v96H8c-4.418,0-8,3.582-8,8s3.582,8,8,8h8v96
			c0,4.418,3.582,8,8,8h96v8c0,4.418,3.582,8,8,8s8-3.582,8-8v-8h96v8c0,4.418,3.582,8,8,8s8-3.582,8-8v-8h96v8c0,4.418,3.582,8,8,8
			s8-3.582,8-8v-8h112c4.418,0,8-3.582,8-8S476.418,448.008,472,448.008z"/>
	</g>
</g>
<g>
	<g>
		<path d="M97.3,104.347c-0.926-4.321-5.179-7.074-9.5-6.148v-0.04l-34.592,7.448c-4.321,0.922-7.077,5.172-6.155,9.493
			c0.787,3.69,4.046,6.329,7.819,6.331c0.567,0,1.133-0.059,1.688-0.176l34.592-7.408C95.473,112.922,98.226,108.669,97.3,104.347z"
			/>
	</g>
</g>
<g>
	<g>
		<path d="M151.72,115.824l-8.2-22.552c-1.365-3.752-5.288-5.923-9.192-5.088l-23.472,5.024c-4.321,0.926-7.074,5.179-6.148,9.5
			c0.926,4.321,5.179,7.074,9.5,6.148l16.656-3.568l5.816,16c1.509,4.153,6.099,6.297,10.252,4.788S153.229,119.977,151.72,115.824z
			"/>
	</g>
</g>
<g>
	<g>
		<path d="M185.72,209.32l-20.4-56.096c-1.511-4.153-6.103-6.295-10.256-4.784c-4.153,1.511-6.295,6.103-4.784,10.256l20.4,56.096
			c1.511,4.153,6.103,6.295,10.256,4.784C185.089,218.064,187.231,213.473,185.72,209.32z"/>
	</g>
</g>
<g>
	<g>
		<path d="M231.405,267.28c-0.723-4.173-4.573-7.06-8.781-6.584l-17.328,2.472l-5.976-16.448c-1.509-4.153-6.099-6.297-10.252-4.788
			c-4.153,1.509-6.297,6.099-4.788,10.252l8.2,22.56c1.151,3.161,4.156,5.265,7.52,5.264c0.38,0.001,0.76-0.026,1.136-0.08
			l23.752-3.4C229.241,275.773,232.159,271.633,231.405,267.28z"/>
	</g>
</g>
<g>
	<g>
		<path d="M390.16,260.216l-16.28-17.6c-1.773-1.956-4.403-2.904-7.016-2.528l-23.752,3.4c-4.39,0.496-7.547,4.458-7.051,8.848
			c0.496,4.39,4.458,7.547,8.848,7.051c0.156-0.018,0.312-0.04,0.466-0.067l19.6-2.8l13.424,14.552
			c2.998,3.247,8.061,3.45,11.308,0.452S393.158,263.463,390.16,260.216z"/>
	</g>
</g>
<g>
	<g>
		<path d="M435.488,309.311l-27.2-29.456c-2.996-3.247-8.057-3.451-11.304-0.456c-3.247,2.996-3.451,8.057-0.456,11.304l27.2,29.464
			c2.998,3.247,8.061,3.45,11.308,0.452C438.284,317.622,438.486,312.559,435.488,309.311z"/>
	</g>
</g>
<g>
	<g>
		<path d="M469.983,346.664c-0.034-0.038-0.069-0.075-0.103-0.112l-16.28-17.608c-2.998-3.245-8.059-3.445-11.304-0.448
			c-3.247,2.996-3.451,8.057-0.456,11.304l16.28,17.6c2.965,3.276,8.024,3.528,11.3,0.564
			C472.696,354.999,472.948,349.94,469.983,346.664z"/>
	</g>
</g>
<g>
</g>
<g>
</g>
<g>
</g>
<g>
</g>
<g>
</g>
<g>
</g>
<g>
</g>
<g>
</g>
<g>
</g>
<g>
</g>
<g>
</g>
<g>
</g>
<g>
</g>
<g>
</g>
<g>
</g>
</svg>
